<svg xmlns="http://www.w3.org/2000/svg" width="380" height="204" viewBox="0 0 380 204" role="img" aria-label="Most used languages">
  <style>
    text { font-family: -apple-system, BlinkMacSystemFont, "Segoe UI", Helvetica, Arial, sans-serif; }
    .title { font-size: 15px; font-weight: 600; fill: #e6edf3; }
    .sub { font-size: 11px; fill: #8b949e; }
    .label { font-size: 12px; fill: #e6edf3; }
    .pct { font-size: 12px; fill: #8b949e; }
  </style>
  <text x="20" y="30" class="title">Most used languages</text>
  <text x="20" y="47" class="sub">across 44 public repositories</text>
  <rect x="20" y="62" width="340" height="10" rx="5" fill="#21262d"/>
  <g clip-path="inset(0 round 5px)"><g><rect x="20.00" y="62" width="300.94" height="10" fill="#3178c6"/><rect x="320.94" y="62" width="19.71" height="10" fill="#3572A5"/><rect x="340.65" y="62" width="5.24" height="10" fill="#663399"/><rect x="345.89" y="62" width="5.21" height="10" fill="#00ADD8"/><rect x="351.10" y="62" width="2.80" height="10" fill="#f1e05a"/><rect x="353.89" y="62" width="2.71" height="10" fill="#f34b7d"/><rect x="356.60" y="62" width="1.37" height="10" fill="#178600"/><rect x="357.97" y="62" width="0.47" height="10" fill="#8b949e"/><rect x="358.44" y="62" width="1.56" height="10" fill="#8b949e"/></g></g>
  <circle cx="25" cy="102" r="5" fill="#3178c6"/><text x="37" y="106" class="label">TypeScript</text><text x="156" y="106" class="pct">88.5%</text><circle cx="195" cy="102" r="5" fill="#3572A5"/><text x="207" y="106" class="label">Python</text><text x="326" y="106" class="pct">5.8%</text><circle cx="25" cy="124" r="5" fill="#663399"/><text x="37" y="128" class="label">CSS</text><text x="156" y="128" class="pct">1.5%</text><circle cx="195" cy="124" r="5" fill="#00ADD8"/><text x="207" y="128" class="label">Go</text><text x="326" y="128" class="pct">1.5%</text><circle cx="25" cy="146" r="5" fill="#f1e05a"/><text x="37" y="150" class="label">JavaScript</text><text x="156" y="150" class="pct">0.8%</text><circle cx="195" cy="146" r="5" fill="#f34b7d"/><text x="207" y="150" class="label">C++</text><text x="326" y="150" class="pct">0.8%</text><circle cx="25" cy="168" r="5" fill="#178600"/><text x="37" y="172" class="label">C#</text><text x="156" y="172" class="pct">0.4%</text><circle cx="195" cy="168" r="5" fill="#8b949e"/><text x="207" y="172" class="label">HCL</text><text x="326" y="172" class="pct">0.1%</text><circle cx="25" cy="190" r="5" fill="#8b949e"/><text x="37" y="194" class="label">Other</text><text x="156" y="194" class="pct">0.5%</text>
</svg>
