<svg xmlns="http://www.w3.org/2000/svg" width="380" height="204" viewBox="0 0 380 204" role="img" aria-label="Most used languages">
  <style>
    text { font-family: -apple-system, BlinkMacSystemFont, "Segoe UI", Helvetica, Arial, sans-serif; }
    .title { font-size: 15px; font-weight: 600; fill: #e6edf3; }
    .sub { font-size: 11px; fill: #8b949e; }
    .label { font-size: 12px; fill: #e6edf3; }
    .pct { font-size: 12px; fill: #8b949e; }
  </style>
  <text x="20" y="30" class="title">Most used languages</text>
  <text x="20" y="47" class="sub">across 40 public repositories</text>
  <rect x="20" y="62" width="340" height="10" rx="5" fill="#21262d"/>
  <g clip-path="inset(0 round 5px)"><g><rect x="20.00" y="62" width="245.17" height="10" fill="#3178c6"/><rect x="265.17" y="62" width="36.03" height="10" fill="#f34b7d"/><rect x="301.20" y="62" width="18.45" height="10" fill="#178600"/><rect x="319.65" y="62" width="12.58" height="10" fill="#f1e05a"/><rect x="332.24" y="62" width="11.55" height="10" fill="#663399"/><rect x="343.79" y="62" width="5.40" height="10" fill="#3572A5"/><rect x="349.19" y="62" width="2.78" height="10" fill="#89e051"/><rect x="351.97" y="62" width="2.05" height="10" fill="#e34c26"/><rect x="354.02" y="62" width="5.98" height="10" fill="#8b949e"/></g></g>
  <circle cx="25" cy="102" r="5" fill="#3178c6"/><text x="37" y="106" class="label">TypeScript</text><text x="156" y="106" class="pct">72.1%</text><circle cx="195" cy="102" r="5" fill="#f34b7d"/><text x="207" y="106" class="label">C++</text><text x="326" y="106" class="pct">10.6%</text><circle cx="25" cy="124" r="5" fill="#178600"/><text x="37" y="128" class="label">C#</text><text x="156" y="128" class="pct">5.4%</text><circle cx="195" cy="124" r="5" fill="#f1e05a"/><text x="207" y="128" class="label">JavaScript</text><text x="326" y="128" class="pct">3.7%</text><circle cx="25" cy="146" r="5" fill="#663399"/><text x="37" y="150" class="label">CSS</text><text x="156" y="150" class="pct">3.4%</text><circle cx="195" cy="146" r="5" fill="#3572A5"/><text x="207" y="150" class="label">Python</text><text x="326" y="150" class="pct">1.6%</text><circle cx="25" cy="168" r="5" fill="#89e051"/><text x="37" y="172" class="label">Shell</text><text x="156" y="172" class="pct">0.8%</text><circle cx="195" cy="168" r="5" fill="#e34c26"/><text x="207" y="172" class="label">HTML</text><text x="326" y="172" class="pct">0.6%</text><circle cx="25" cy="190" r="5" fill="#8b949e"/><text x="37" y="194" class="label">Other</text><text x="156" y="194" class="pct">1.8%</text>
</svg>
